<svg t="1620987136644" class="icon" viewBox="0 0 1024 1024" version="1.1" xmlns="http://www.w3.org/2000/svg" p-id="8132" width="200" height="200"><path d="M513 61.6c-247.4 0-448 200.6-448 448s200.6 448 448 448 448-200.6 448-448-200.6-448-448-448zM318.9 827.9c38.5-67.4 110.8-113 194.1-113 83.2 0 155.5 45.6 194 113-56.6 34.6-122.9 55-194 55-71.1 0.1-137.4-20.3-194.1-55z m447.8-45.2C714.3 697.4 620.5 640.3 513 640.3s-201.3 57.1-253.8 142.4c-73.3-68.2-119.6-165.2-119.6-273 0-205.9 167.5-373.3 373.3-373.3 205.9 0 373.3 167.5 373.3 373.3 0.1 107.8-46.1 204.8-119.5 273z" p-id="8133"></path><path d="M513 285.6c-82.5 0-149.3 66.9-149.3 149.3 0 82.5 66.9 149.3 149.3 149.3 82.5 0 149.3-66.9 149.3-149.3S595.5 285.6 513 285.6z m0 224c-41.2 0-74.7-33.5-74.7-74.7s33.5-74.7 74.7-74.7 74.7 33.5 74.7 74.7-33.5 74.7-74.7 74.7z" p-id="8134"></path></svg>