<svg t="1621418340968" class="icon" viewBox="0 0 1365 1024" version="1.1" xmlns="http://www.w3.org/2000/svg" p-id="4660" width="200" height="200"><path d="M682.666667 1024C305.621333 1024 0 640.256 0 512 0 342.570667 305.621333 0 682.666667 0s682.666667 382.72 682.666666 512c0 134.954667-305.621333 512-682.666666 512z m0-938.666667C352.768 85.333333 85.333333 370.816 85.333333 512c0 106.666667 267.434667 426.666667 597.333334 426.666667s597.333333-325.162667 597.333333-426.666667c0-104.192-267.434667-426.666667-597.333333-426.666667z m0 682.666667a256 256 0 1 1 256-256 256 256 0 0 1-256 256z m0-426.666667a170.666667 170.666667 0 1 0 170.666666 170.666667 170.666667 170.666667 0 0 0-170.666666-170.666667z" p-id="4661"></path></svg>