<svg t="1620987303363" class="icon" viewBox="0 0 1024 1024" version="1.1" xmlns="http://www.w3.org/2000/svg" p-id="8947" width="200" height="200"><path d="M647.314 356.571h-392c-12.571 0-22.857-10.285-22.857-22.857s10.286-22.857 22.857-22.857h392c12.572 0 22.857 10.286 22.857 22.857S660 356.571 647.314 356.571z m0 137.715h-392c-12.571 0-22.857-10.286-22.857-22.857s10.286-22.858 22.857-22.858h392c12.572 0 22.857 10.286 22.857 22.858S660 494.286 647.314 494.286z" p-id="8948"></path><path d="M653.257 0.229H85.486C72 0.229 61.143 11.2 61.143 24.57V998.4c0 13.486 10.971 24.343 24.343 24.343h501.257c12.571 0 22.857-10.286 22.857-22.857s-10.286-22.857-22.857-22.857H106.857V45.943h499.314v175.314c0 13.143 10.743 23.886 23.886 23.886h167.886v390.286c0 12.571 10.286 22.857 22.857 22.857s22.857-10.286 22.857-22.857v-444.8c0-105.029-85.371-190.4-190.4-190.4z m-1.371 199.2V45.943h1.371c79.772 0 144.686 64.914 144.686 144.686v8.8H651.886z" p-id="8949"></path><path d="M451.886 632H255.314c-12.571 0-22.857-10.286-22.857-22.857s10.286-22.857 22.857-22.857h196.572c12.571 0 22.857 10.285 22.857 22.857S464.57 632 451.886 632zM956.57 984.343l-93.828-93.829C898.629 839.314 893.714 768 848 722.171c-51.2-51.2-134.629-51.2-185.829 0s-51.2 134.629 0 185.829c25.6 25.6 59.315 38.4 92.915 38.4 26.4 0 52.8-7.886 75.314-23.657l93.829 93.828c4.457 4.458 10.285 6.743 16.114 6.743s11.657-2.285 16.114-6.743c9.029-8.8 9.029-23.2 0.114-32.228zM694.4 875.77c-33.371-33.371-33.371-87.771 0-121.257 16.686-16.685 38.629-25.028 60.571-25.028s43.886 8.343 60.572 25.028c33.371 33.372 33.371 87.772 0 121.257-33.372 33.372-87.772 33.372-121.143 0z" p-id="8950"></path></svg>