<svg t="1621418273004" class="icon" viewBox="0 0 1024 1024" version="1.1" xmlns="http://www.w3.org/2000/svg" p-id="2822" width="200" height="200"><path d="M838.4 905.6a32 32 0 0 1-22.72-9.6 32 32 0 0 1 0-45.12l101.12-101.12a32 32 0 0 1 45.12 0 32 32 0 0 1 0 45.44L861.12 896a32 32 0 0 1-22.72 9.6z" p-id="2823"></path><path d="M939.52 804.48a32 32 0 0 1-22.72-9.28l-101.12-101.12a32 32 0 1 1 45.44-45.12l100.8 100.8a32 32 0 0 1-22.4 54.72zM838.4 394.88a32 32 0 0 1-22.72-9.28 32 32 0 0 1 0-45.44l101.12-100.8a32 32 0 0 1 45.12 0 32 32 0 0 1 0 45.12l-100.8 101.12a32 32 0 0 1-22.72 9.28z" p-id="2824"></path><path d="M939.52 293.76a32 32 0 0 1-22.72-9.28l-101.12-101.12a32 32 0 0 1 0-45.12 32 32 0 0 1 45.44 0l100.8 101.12a32 32 0 0 1-22.4 54.4zM512 549.12a32 32 0 0 1-32-32 224 224 0 0 0-224-224H107.52a32 32 0 1 1 0-64H256a288 288 0 0 1 288 288 32 32 0 0 1-32 32z" p-id="2825"></path><path d="M915.84 804.48H768a288 288 0 0 1-288-288 32 32 0 1 1 64 0 224 224 0 0 0 224 224h148.8a32 32 0 1 1 0 64zM546.24 421.44a30.08 30.08 0 0 1-16.32-4.48 32 32 0 0 1-11.52-43.52A288 288 0 0 1 768 229.76h148.8a32 32 0 0 1 0 64H768a224 224 0 0 0-192 111.68 32 32 0 0 1-29.76 16zM426.56 549.12h-320a32 32 0 1 1 0-64h320a32 32 0 1 1 0 64z" p-id="2826"></path><path d="M256 804.48H107.52a32 32 0 1 1 0-64H256a224 224 0 0 0 192-111.68 32 32 0 0 1 55.36 32A288 288 0 0 1 256 804.48z" p-id="2827"></path></svg>