<svg t="1620987609344" class="icon" viewBox="0 0 1024 1024" version="1.1" xmlns="http://www.w3.org/2000/svg" p-id="11796" width="200" height="200"><path d="M900.89 53.67H123.11A111.23 111.23 0 0 0 12 164.78v500a111.23 111.23 0 0 0 111.11 111.11h182.94L492.36 962.2a27.77 27.77 0 0 0 39.28 0l186.31-186.31h182.94A111.23 111.23 0 0 0 1012 664.78v-500A111.23 111.23 0 0 0 900.89 53.67z m55.56 611.11a55.62 55.62 0 0 1-55.56 55.56H706.44a27.76 27.76 0 0 0-19.64 8.14L512 903.28 337.2 728.47a27.76 27.76 0 0 0-19.64-8.14H123.11a55.62 55.62 0 0 1-55.56-55.56v-500a55.62 55.62 0 0 1 55.56-55.56h777.78a55.62 55.62 0 0 1 55.56 55.56z" p-id="11797"></path><path d="M289.78 414.78m-55.56 0a55.56 55.56 0 1 0 111.12 0 55.56 55.56 0 1 0-111.12 0Z" p-id="11798"></path><path d="M512 414.78m-55.56 0a55.56 55.56 0 1 0 111.12 0 55.56 55.56 0 1 0-111.12 0Z" p-id="11799"></path><path d="M734.22 414.78m-55.56 0a55.56 55.56 0 1 0 111.12 0 55.56 55.56 0 1 0-111.12 0Z" p-id="11800"></path></svg>