<svg t="1620986913795" class="icon" viewBox="0 0 1024 1024" version="1.1" xmlns="http://www.w3.org/2000/svg" p-id="5314" width="200" height="200"><path d="M511.488 221.568c112.448-96.576 228.48-110.272 343.744-38.656 117.12 77.12 131.136 223.04 77.504 342.272a22.4 22.4 0 1 1-40.832-18.368c45.632-101.44 33.792-223.808-60.8-286.144-104.704-65.088-207.168-47.424-313.344 55.808a22.4 22.4 0 0 1-29.696 1.344c-112.256-91.136-213.12-108.992-306.816-56.576-113.6 62.848-119.36 202.624-52.928 323.072 72.384 131.2 181.248 241.728 380.352 347.072a22.4 22.4 0 0 1-20.928 39.616c-207.04-109.568-322.176-226.432-398.656-365.056C12.288 426.688 19.2 259.84 159.488 182.08c102.912-57.6 213.632-43.52 329.024 39.68l12.288 9.152 10.688-9.344z" p-id="5315"></path><path d="M894.4 671.552a22.4 22.4 0 0 1 4.544 44.352l-4.48 0.448h-320a22.4 22.4 0 0 1-4.544-44.288l4.48-0.512h320z" p-id="5316"></path><path d="M734.4 511.552c10.88 0 19.84 7.68 21.952 17.92l0.448 4.48v320a22.4 22.4 0 0 1-44.288 4.544l-0.512-4.48v-320a22.4 22.4 0 0 1 22.4-22.4z" p-id="5317"></path></svg>