<svg t="1620987107130" class="icon" viewBox="0 0 1024 1024" version="1.1" xmlns="http://www.w3.org/2000/svg" p-id="7310" width="200" height="200"><path d="M837.5808 371.84h-193.60768c-9.8304 0-17.75616 12.95872-17.75616 28.83584 0 15.95904 7.94624 24.53504 17.75616 24.53504h193.60768c9.82016 0 17.75616-8.576 17.75616-24.53504 0.0256-15.88224-7.936-28.83584-17.75616-28.83584z" p-id="7311"></path><path d="M644.2752 398.44352m-26.76224 0a26.76224 26.76224 0 1 0 53.52448 0 26.76224 26.76224 0 1 0-53.52448 0Z" p-id="7312"></path><path d="M840.07424 398.44352m-26.76224 0a26.76224 26.76224 0 1 0 53.52448 0 26.76224 26.76224 0 1 0-53.52448 0Z" p-id="7313"></path><path d="M768.98304 578.65216h-125.01504c-9.8304 0-17.7664 12.96384-17.7664 28.83584 0 15.96416 7.936 24.5504 17.7664 24.5504h125.01504c9.80992 0 17.76128-8.58624 17.76128-24.5504 0.02048-15.872-7.95136-28.83584-17.76128-28.83584z" p-id="7314"></path><path d="M644.2752 605.26592m-26.77248 0a26.77248 26.77248 0 1 0 53.54496 0 26.77248 26.77248 0 1 0-53.54496 0Z" p-id="7315"></path><path d="M771.4816 605.26592m-26.77248 0a26.77248 26.77248 0 1 0 53.54496 0 26.77248 26.77248 0 1 0-53.54496 0Z" p-id="7316"></path><path d="M995.29216 240.45056a147.67104 147.67104 0 0 0-0.52736-9.41568c-6.55872-79.50336-79.42144-142.19776-168.6528-142.19776H198.79936c-89.23648 0-162.17088 62.70976-168.7296 142.22848a141.184 141.184 0 0 0-0.50688 9.10848c-0.01024 0.82944-0.13824 1.65376-0.13824 2.49344v88.28416h0.01024v343.65952h-0.01024v88.28928c0 19.72736 4.23936 38.50752 11.67872 55.8336 24.61696 57.31328 85.80096 97.9968 157.62944 97.9968H826.112c93.55776 0 169.29792-68.87424 169.29792-153.8304V242.65728c0.00512-0.7424-0.10752-1.46944-0.11776-2.20672z m-51.79392 237.78816l-0.04096 252.55424c0 34.87232-5.77536 74.63936-29.65504 98.59072-26.94656 26.99776-74.46016 36.16256-117.57568 36.16256H228.736c-5.51424 0-11.09504-0.14848-16.68096-0.46592-1.02912-0.07168-2.05312-0.20992-3.08224-0.27136a257.3312 257.3312 0 0 1-13.74208-1.22368c-1.22368-0.13824-2.41664-0.37888-3.62496-0.54272a242.33472 242.33472 0 0 1-12.91776-2.04288c-1.6128-0.31744-3.17952-0.74752-4.77696-1.08032a198.31296 198.31296 0 0 1-11.06944-2.65728c-2.40128-0.68096-4.67968-1.52064-7.02464-2.28352-2.6368-0.86016-5.2992-1.68448-7.82848-2.65216a137.71776 137.71776 0 0 1-10.1632-4.55168c-1.13152-0.55296-2.29888-1.024-3.39968-1.59232-8.75008-4.62336-16.65024-10.15808-23.28064-16.82432-23.86944-23.93088-29.62432-63.70816-29.62432-98.58048V275.8656v-2.28864c0.09728-33.34656 4.608-71.76192 26.71616-95.08864 27.01824-28.65152 75.97568-38.52288 120.51456-38.52288h567.48544c43.1104 0 90.63424 9.17504 117.57568 36.18304 23.8848 23.94624 29.66016 63.72352 29.66016 98.5856v53.05344h0.03584v150.44608h-0.01024z" p-id="7317"></path><path d="M496.19456 510.4128c15.06816-23.69024 25.84064-53.84704 25.84064-83.99872 0-83.99872-66.75968-150.76352-150.76864-150.76352-83.99872 0-150.76352 66.76992-150.76352 150.76352 0 30.1568 8.61184 60.30848 25.84576 83.99872-53.84704 38.77376-90.46016 103.40352-90.46016 174.44864 0 12.92288 8.6016 21.54496 21.53984 21.54496 12.91776 0 21.53472-8.62208 21.53472-21.54496 0-60.29824 30.16192-111.98464 75.38176-142.16192 25.84576 21.53472 60.30336 34.47808 96.9216 34.47808 36.61824 0 71.07584-12.928 96.93696-34.47808 45.2096 30.1568 75.36128 83.97824 75.36128 142.16192 0 12.92288 8.6272 21.54496 21.5296 21.54496 12.91264 0 21.53984-8.62208 21.53984-21.54496 0-71.04512-36.60288-135.67488-90.43968-174.44864z m-124.928 23.68512c-60.30848 0-107.68896-47.38048-107.68896-107.68896 0-60.30336 47.37536-107.68896 107.68896-107.68896 60.31872 0 107.68896 47.3856 107.68896 107.68896 0 60.30848-47.37024 107.68896-107.68896 107.68896z" p-id="7318"></path></svg>