<svg t="1622632911671" class="icon" viewBox="0 0 1024 1024" version="1.1" xmlns="http://www.w3.org/2000/svg" p-id="9710" width="200" height="200"><path d="M512 1024C229.21216 1024 0 794.78784 0 512S229.21216 0 512 0 1024 229.21216 1024 512 794.78784 1024 512 1024zM326.90176 353.23904v190.75072h368.64V353.23904h-97.73056c19.33312-25.76384 38.05184-57.344 56.77056-94.78144l-40.38656-14.66368a574.01344 574.01344 0 0 1-62.01344 109.44512h-225.28z m326.49216 150.97856H369.0496V393.0112h284.34432v111.2064z m-254.52544-258.048l-35.67616 17.53088a643.03104 643.03104 0 0 1 63.20128 87.20384l35.67616-17.57184c-19.90656-31.58016-40.96-60.86656-63.20128-87.16288z m-96.54272 346.39872c-12.288 52.6336-31.58016 101.21216-58.53184 145.12128l35.71712 22.81472c26.91072-44.48256 47.96416-97.73056 63.20128-159.17056l-40.38656-8.76544z m220.61056-25.1904l-36.864 12.288c19.8656 29.85984 38.01088 63.81568 54.39488 102.4l38.62528-16.95744a573.15328 573.15328 0 0 0-56.15616-97.73056z m184.32 14.04928l-40.38656 12.9024c25.76384 42.68032 49.152 91.83232 70.20544 148.02944l38.62528-16.95744a906.6496 906.6496 0 0 0-68.44416-143.9744z m-112.35328 197.79584c22.24128 0 38.62528-4.66944 49.152-14.04928 11.71456-12.288 19.90656-45.056 24.00256-97.73056l-40.38656-12.86144c-2.33472 40.96-6.43072 65.536-13.47584 74.30144-5.24288 7.04512-14.04928 10.52672-26.91072 10.52672h-128.73728c-16.95744 0-25.14944-9.33888-25.14944-27.48416v-114.11456H390.67648v122.88c0 38.62528 18.14528 58.53184 55.00928 58.53184h149.21728z" p-id="9711"></path></svg>