<svg t="1622619214939" class="icon" viewBox="0 0 1024 1024" version="1.1" xmlns="http://www.w3.org/2000/svg" p-id="3526" width="200" height="200"><path d="M795.1 862.9H216.8c-17.1 0-31.1 14-31.1 31.1v1.9c0 17.1 14 31.1 31.1 31.1h578.3c17.1 0 31.1-14 31.1-31.1V894c0-17.1-14-31.1-31.1-31.1zM322.6 329.3c-4.3 21.6-3.8 15.8-11.6 37.1l-37 98.7h99.1L338 371.8c-10.7-28.3-10.2-24.3-15.4-42.5zM726.4 325.5c-10.7-4.1-28-6.2-51.8-6.2H611v231.3h64.6c20 0 35.6-1.9 47-5.6 11.4-3.7 20.4-8.9 27.2-15.7 9.5-9.5 16.9-22.3 22.2-38.3 5.3-16 8-35.5 8-58.3 0-31.7-5.2-56-15.6-73-10.5-17-23.1-28.4-38-34.2z" fill="#7AB011" p-id="3527"></path><path d="M856.8 97.9H168c-57.2 0-104 46.8-104 104v491.8c0 57.2 46.8 104 104 104h688.8c57.2 0 104-46.8 104-104V201.9c0-57.2-46.8-104-104-104zM426.1 603.2l-36.2-94.1-128.7-0.2-37 94.3H169l129.2-336.5h48l137.7 336.5h-57.8z m400.2-102.1c-6 19.7-13.6 36.1-23 49-9.3 12.9-19.5 23.1-30.6 30.5-11.1 7.4-24.5 13-40.2 16.9-15.7 3.8-33.7 5.7-54.1 5.7H557.1V266.7H673c26.2 0 46.1 1.6 59.9 4.8 19.3 4.4 35.7 12.5 49.3 24.1 17.7 15 31 34.2 39.8 57.5 8.8 23.3 13.2 50 13.2 80 0 25.6-2.9 48.2-8.9 68z" fill="#7AB011" p-id="3528"></path></svg>