<svg t="1620873773553" class="icon" viewBox="0 0 1024 1024" version="1.1" xmlns="http://www.w3.org/2000/svg" p-id="1860" width="200" height="200"><path d="M512 947.2c-34.133333 0-64-12.8-89.6-38.4l-366.933333-366.933333c-8.533333-8.533333-12.8-17.066667-12.8-29.866667V85.333333c0-25.6 17.066667-42.666667 42.666666-42.666666h426.666667c12.8 0 21.333333 4.266667 29.866667 12.8l366.933333 366.933333c51.2 51.2 51.2 132.266667 0 179.2l-307.2 307.2c-25.6 25.6-55.466667 38.4-89.6 38.4zM128 494.933333l354.133333 354.133334c17.066667 17.066667 42.666667 17.066667 59.733334 0l307.2-307.2c17.066667-17.066667 17.066667-42.666667 0-59.733334L494.933333 128H128v366.933333z m750.933333 76.8z" p-id="1861"></path><path d="M298.666667 341.333333c-12.8 0-21.333333-4.266667-29.866667-12.8-4.266667-4.266667-8.533333-8.533333-8.533333-12.8C256 311.466667 256 302.933333 256 298.666667c0-4.266667 0-12.8 4.266667-17.066667 4.266667-4.266667 4.266667-8.533333 8.533333-12.8 4.266667-4.266667 8.533333-8.533333 12.8-8.533333 12.8-4.266667 21.333333-4.266667 34.133333 0 4.266667 4.266667 8.533333 4.266667 12.8 8.533333 8.533333 8.533333 12.8 17.066667 12.8 29.866667 0 12.8-4.266667 21.333333-12.8 29.866666-8.533333 8.533333-17.066667 12.8-29.866666 12.8z" p-id="1862"></path></svg>