<?xml version="1.0" standalone="no"?><!DOCTYPE svg PUBLIC "-//W3C//DTD SVG 1.1//EN" "http://www.w3.org/Graphics/SVG/1.1/DTD/svg11.dtd"><svg class="icon" width="200px" height="200.00px" viewBox="0 0 1024 1024" version="1.1" xmlns="http://www.w3.org/2000/svg"><path fill="#ffffff" d="M517.032183 19.734053a493.35132 493.35132 0 1 0 493.351321 493.35132 493.35132 493.35132 0 0 0-493.351321-493.35132z m0 927.500482a434.149162 434.149162 0 1 1 434.149162-434.149162 434.149162 434.149162 0 0 1-434.149162 434.149162z m-31.771825-320.086337h50.913857l28.417036-257.92407H513.085373z m-54.268645-257.92407l-92.750048 193.985739-48.940451-193.985739h-57.426094l72.423974 257.92407H355.21295l133.204857-257.92407z m347.714011 5.722875a148.597418 148.597418 0 0 0-46.177684-4.933513h-119.58836l-28.219695 257.134708h50.913856l9.867026-90.184621h81.896319a116.03623 116.03623 0 0 0 33.153209-4.144151 70.450569 70.450569 0 0 0 24.470226-14.011178 87.619194 87.619194 0 0 0 21.510117-28.811717 109.918674 109.918674 0 0 0 10.853729-36.113317 88.605897 88.605897 0 0 0-5.328194-43.612256A57.623434 57.623434 0 0 0 778.705724 374.947003z m-17.168626 76.962806a48.348429 48.348429 0 0 1-14.80054 33.745231 45.190981 45.190981 0 0 1-26.838312 6.117556H651.223743l7.69628-77.357487H730.159954a45.388321 45.388321 0 0 1 19.734053 2.762767c9.077664 5.525535 13.616496 16.971285 11.643091 33.942571z" /></svg>