<svg xmlns="http://www.w3.org/2000/svg" width="20" height="20" viewBox="0 0 20 20">
  <g id="VIP" transform="translate(-0.286 -0.429)">
    <rect id="矩形_46" data-name="矩形 46" width="20" height="20" transform="translate(0.286 0.429)" fill="none"/>
    <path id="路径_89" data-name="路径 89" d="M79.822,111.3v6.882h1.446v-2.5c2.311.034,3.483-.069,3.808-2.041a2.256,2.256,0,0,0-.359-1.579c-.762-1.033-3.056-.777-4.9-.762Zm1.446,3.213V112.5c1.073-.034,2.209-.153,2.4.714C83.973,114.669,82.474,114.546,81.268,114.512Zm-4.232-3.179c.016,2.277.016,4.57.034,6.848h1.412V111.3c-.476.02-.954.02-1.446.034Zm2.737-9.209c-2.229,2.225-4.451,4.433-6.7,6.662v-6.662H67.69c.016.442.016.9.034,1.343h1.309v14.7q8.029-8.036,16.043-16.047Z" transform="translate(-66.111 -100.324)" fill="#f86400"/>
  </g>
</svg>
