<svg xmlns="http://www.w3.org/2000/svg" width="20" height="20" viewBox="0 0 20 20">
  <g id="代理" transform="translate(-0.147 0.356)">
    <rect id="矩形_46" data-name="矩形 46" width="20" height="20" transform="translate(0.147 -0.356)" fill="none"/>
    <g id="组_14" data-name="组 14" transform="translate(0.404 0.557)">
      <path id="路径_80" data-name="路径 80" d="M794.554,658.672a.107.107,0,0,1,0-.137Z" transform="translate(-778.736 -646.812)" fill="#444"/>
      <path id="路径_81" data-name="路径 81" d="M794.647,673.6c-.035-.023-.024-.046,0-.068Z" transform="translate(-778.83 -661.467)" fill="#7d7d7d"/>
      <path id="路径_82" data-name="路径 82" d="M113.729,160.885a4.04,4.04,0,0,1-.8-.775,4.462,4.462,0,0,1-.236-5.26c.168-.252.165-.285-.114-.408a.335.335,0,0,1-.22-.347q0-.6,0-1.19a.319.319,0,0,1,.1-.237,1.907,1.907,0,0,0,.3-.436,4.165,4.165,0,0,0,.411-1.287c.015-.09.044-.145.143-.157a.333.333,0,0,0,.235-.161,1.038,1.038,0,0,0,.176-.438,6.989,6.989,0,0,0,.093-1.281.475.475,0,0,0-.213-.418.141.141,0,0,1-.068-.153c.024-.307.063-.612.1-.917a2.946,2.946,0,0,0-.216-1.49,2.848,2.848,0,0,0-2.419-1.8c-.114-.015-.231-.007-.345-.031h-.616c-.215.038-.436.021-.648.076a2.872,2.872,0,0,0-2.034,1.626,2.946,2.946,0,0,0-.27,1.606c.037.3.062.6.094.9.007.063.022.127-.054.172a.5.5,0,0,0-.227.454,7.6,7.6,0,0,0,.068,1.088,1.256,1.256,0,0,0,.188.581.355.355,0,0,0,.252.183c.1.012.13.068.142.158a3.487,3.487,0,0,0,.112.519,2.907,2.907,0,0,0,.637,1.246.2.2,0,0,1,.056.139c0,.415,0,.831,0,1.246a.359.359,0,0,1-.246.36c-.509.222-1.01.461-1.524.672a6.809,6.809,0,0,1-1.535.516,4.533,4.533,0,0,0-1.471.514,3.283,3.283,0,0,0-.871.673,4.2,4.2,0,0,0-.744,1.162,4.6,4.6,0,0,0-.4,1.448,2.135,2.135,0,0,1-.038.4v.56a.7.7,0,0,0,.644.644H113.84C113.853,160.958,113.782,160.924,113.729,160.885Z" transform="translate(-101.514 -144.098)" fill="#3598f1"/>
      <path id="路径_83" data-name="路径 83" d="M621.135,572.142a2.637,2.637,0,0,1-.1-.441,3.541,3.541,0,1,0,.023,1.555.772.772,0,0,1,.075-.3v-.112a.065.065,0,0,1,0-.084v-.252a.22.22,0,0,1,0-.168Zm-2.43-1.381a1.2,1.2,0,0,1,.5.709.386.386,0,0,1-.279.347.27.27,0,0,1-.332-.109c-.111-.149-.22-.3-.321-.458a.271.271,0,0,1,.036-.358A.361.361,0,0,1,618.7,570.761Zm-1.83,2.07c-.006.238,0,.476,0,.714s0,.495,0,.742-.1.346-.341.372c-.028,0-.056,0-.084,0-.42.008-.515-.085-.515-.5,0-.308,0-.616,0-.924,0-.112-.016-.184-.145-.2a.524.524,0,0,1-.19-.084.4.4,0,0,1-.183-.482.711.711,0,0,1,.154-.279,3.524,3.524,0,0,0,.634-1.173c.021-.062.043-.123.068-.183a.351.351,0,0,1,.364-.231c.171.009.367,0,.461.175a.648.648,0,0,1-.048.578c-.032.076-.114.106-.184.143a.68.68,0,0,0-.258.968.28.28,0,0,0,.137.136C616.864,572.642,616.877,572.723,616.874,572.831Zm2.575,1.238a1.294,1.294,0,0,1-.254.431.431.431,0,0,1-.555.114,1.329,1.329,0,0,1-.61-.615,3.749,3.749,0,0,1-.363-1.384c-.012-.111-.044-.144-.154-.131-.157.018-.316.027-.475.03a.308.308,0,0,1-.351-.27.741.741,0,0,1-.006-.32.348.348,0,0,1,.3-.287c.148-.019.3-.031.446-.039.088-.005.123-.04.116-.13-.01-.13-.01-.261-.013-.392a.456.456,0,0,1,.622-.431c.08.031.089.082.035.138a.44.44,0,0,0-.006.62c.094.134.183.27.285.4a.423.423,0,0,0,.639.083c.023-.017.043-.036.067-.051.061-.039.115-.123.193-.083s.05.132.055.195c0,.305-.094.4-.383.424-.121.009-.242.024-.363.027-.1,0-.14.044-.118.148a2.49,2.49,0,0,0,.171.589.223.223,0,0,1-.038.279.654.654,0,0,0-.067.089.078.078,0,0,0,.01.113c.041.032.075.01.11-.022.21-.2.316-.207.537-.062A.408.408,0,0,1,619.45,574.068Z" transform="translate(-602.31 -559.312)" fill="#3598f1"/>
    </g>
  </g>
</svg>
