<svg id="流量" xmlns="http://www.w3.org/2000/svg" width="56.266" height="56.266" viewBox="0 0 56.266 56.266">
  <path id="路径_85" data-name="路径 85" d="M92.133,120.266a28.133,28.133,0,1,1,28.133-28.133A28.165,28.165,0,0,1,92.133,120.266Z" transform="translate(-64 -64)" fill="#c3e1fc"/>
  <path id="路径_86" data-name="路径 86" d="M231.63,358.745a1.655,1.655,0,0,1-1.486-.927l-3.574-7.293-2.459,3.689a1.656,1.656,0,0,1-1.377.737h-3.14a1.655,1.655,0,1,1,0-3.309h2.254l3.564-5.346a1.654,1.654,0,0,1,2.863.19l3.135,6.4,5.534-15.071a1.656,1.656,0,0,1,1.554-1.085h.009a1.654,1.654,0,0,1,1.55,1.1l4.835,13.6,8.3-.115h.023a1.655,1.655,0,0,1,.022,3.309l-9.485.131a1.644,1.644,0,0,1-1.582-1.1l-3.7-10.4-5.289,14.406a1.654,1.654,0,0,1-1.468,1.082c-.029,0-.058,0-.087,0Z" transform="translate(-208.273 -319.603)" fill="#3598f1"/>
</svg>
